<svg width="200" height="200" viewBox="0 0 200 200" fill="none" xmlns="http://www.w3.org/2000/svg">
<path d="M100 16.6665C53.9587 16.6665 16.667 53.9582 16.667 99.9998C16.6576 117.494 22.1571 134.547 32.3855 148.739C42.6138 162.931 57.0515 173.542 73.6503 179.067C77.817 179.792 79.3753 177.292 79.3753 175.1C79.3753 173.125 79.267 166.567 79.267 159.583C58.3337 163.442 52.917 154.483 51.2503 149.792C50.3087 147.392 46.2503 140 42.7087 138.017C39.792 136.458 35.6253 132.6 42.6003 132.5C49.167 132.392 53.8503 138.542 55.417 141.042C62.917 153.642 74.9003 150.1 79.6837 147.917C80.417 142.5 82.6003 138.858 85.0003 136.775C66.4587 134.692 47.0837 127.5 47.0837 95.6248C47.0837 86.5582 50.3087 79.0665 55.6253 73.2248C54.792 71.1415 51.8753 62.5998 56.4587 51.1415C56.4587 51.1415 63.4337 48.9582 79.3753 59.6915C86.1592 57.8087 93.1684 56.861 100.209 56.8748C107.292 56.8748 114.375 57.8082 121.042 59.6832C136.975 48.8498 143.959 51.1498 143.959 51.1498C148.542 62.6082 145.625 71.1498 144.792 73.2332C150.1 79.0665 153.334 86.4582 153.334 95.6248C153.334 127.608 133.859 134.692 115.317 136.775C118.334 139.375 120.942 144.375 120.942 152.191C120.942 163.333 120.834 172.292 120.834 175.108C120.834 177.292 122.4 179.892 126.567 179.058C143.109 173.473 157.483 162.841 167.666 148.659C177.849 134.477 183.329 117.459 183.334 99.9998C183.334 53.9582 146.042 16.6665 100 16.6665Z" fill="black"/>
</svg>
