<svg width="200" height="200" viewBox="0 0 200 200" fill="none" xmlns="http://www.w3.org/2000/svg">
<path d="M121.452 20.3637L32.6532 26.9023C25.496 27.521 23 32.1876 23 37.7822V134.837C23 139.194 24.5573 142.922 28.2959 147.904L49.1704 174.965C52.5997 179.322 55.7143 180.255 62.2635 179.946L165.382 173.722C174.102 173.103 176.598 169.055 176.598 162.213V53.0247C176.598 49.4887 175.196 48.4701 171.068 45.4514C170.833 45.2812 170.598 45.1105 170.364 44.9394L142.017 25.0303C135.159 20.0597 132.359 19.4304 121.452 20.3637ZM64.5995 51.238C56.1783 51.8034 54.269 51.9314 49.485 48.0541L37.3252 38.4115C36.0878 37.1635 36.7118 35.6062 39.8211 35.2969L125.191 29.0783C132.353 28.4543 136.092 30.9449 138.897 33.1209L153.542 43.7021C154.166 44.0115 155.718 45.8728 153.852 45.8728L65.6875 51.1634L64.5995 51.238ZM54.781 161.279V68.5872C54.781 64.5392 56.0236 62.6726 59.7622 62.3579L161.014 56.4486C164.449 56.1393 166.006 58.3153 166.006 62.3579V154.432C166.006 158.479 165.382 161.903 159.766 162.213L62.8769 167.813C57.2716 168.122 54.781 166.261 54.781 161.279ZM150.433 73.5578C151.052 76.3578 150.433 79.1577 147.623 79.4777L142.951 80.4004V148.837C138.897 151.013 135.164 152.256 132.049 152.256C127.063 152.256 125.809 150.698 122.076 146.037L91.5379 98.1335V144.48L101.202 146.661C101.202 146.661 101.202 152.261 93.4045 152.261L71.9114 153.504C71.2928 152.256 71.9114 149.146 74.0981 148.528L79.698 146.976V85.6963L71.9114 85.067C71.2928 82.267 72.8448 78.2244 77.2127 77.9151L100.268 76.3578L132.049 124.891V81.9577L123.943 81.0297C123.324 77.6004 125.809 75.1151 128.929 74.8058L150.433 73.5578Z" fill="white"/>
</svg>
